<?xml version="1.0"?>
<svg xmlns="http://www.w3.org/2000/svg" viewBox="0 0 512 512" width="512px" height="512px" class=""><g><g id="Out_line" data-name="Out line"><path d="M327.9954,163.75464a7.96731,7.96731,0,0,1-3.57129-.84668,27.91375,27.91375,0,0,0-24.84472,0,7.99984,7.99984,0,0,1-7.15528-14.31055,43.98348,43.98348,0,0,1,39.15528,0,8.0013,8.0013,0,0,1-3.584,15.15723Z" data-original="#000000" class="active-path" data-old_color="#000000" fill="#FFFFFF"/><path d="M407.99365,163.75464a7.96731,7.96731,0,0,1-3.57129-.84668,27.91375,27.91375,0,0,0-24.84472,0,7.99984,7.99984,0,0,1-7.15528-14.31055,43.98348,43.98348,0,0,1,39.15528,0,8.0013,8.0013,0,0,1-3.584,15.15723Z" data-original="#000000" class="active-path" data-old_color="#000000" fill="#FFFFFF"/><path d="M344.00586,216.44775a8.00682,8.00682,0,0,1-7.76709-9.94238l8-32a8.00012,8.00012,0,1,1,15.52246,3.88086l-8,32A8.00381,8.00381,0,0,1,344.00586,216.44775Z" data-original="#000000" class="active-path" data-old_color="#000000" fill="#FFFFFF"/><path d="M352,239.9751a43.80681,43.80681,0,0,1-19.57764-4.59619,8.00028,8.00028,0,0,1,7.15528-14.31153,27.90745,27.90745,0,0,0,24.84472,0,8.00028,8.00028,0,0,1,7.15528,14.31153A43.80681,43.80681,0,0,1,352,239.9751Z" data-original="#000000" class="active-path" data-old_color="#000000" fill="#FFFFFF"/><circle cx="392" cy="176.44582" r="8" data-original="#000000" class="active-path" data-old_color="#000000" fill="#FFFFFF"/><circle cx="312" cy="176.44582" r="8" data-original="#000000" class="active-path" data-old_color="#000000" fill="#FFFFFF"/><path d="M468.80005,311.2A34.67521,34.67521,0,0,0,482.13,249.6l-10.66-8A18.7507,18.7507,0,0,1,464,226.67v-16.8A23.93776,23.93776,0,0,0,472,192V168a23.94636,23.94636,0,0,0-8.02-17.89,111.99077,111.99077,0,0,0-223.94995,0A23.93893,23.93893,0,0,0,232,168v24a23.93776,23.93776,0,0,0,8,17.87v16.8a18.7507,18.7507,0,0,1-7.47,14.93l-10.66,8A34.665,34.665,0,0,0,242.66992,312H244.14A88.2656,88.2656,0,0,0,225.95,349.56006l-3.01,14.06994L200,340.68994V296a7.98305,7.98305,0,0,0-1.6-4.8l-24-32A8.00865,8.00865,0,0,0,168,256V176a24.0196,24.0196,0,0,0-20.89-23.79L163.31006,136H192a24.03189,24.03189,0,0,0,24-24V80a24.03185,24.03185,0,0,0-24-24H136V40a24.03185,24.03185,0,0,0-24-24H40A24.03185,24.03185,0,0,0,16,40V72A24.03189,24.03189,0,0,0,40,96h4.68994l29.65015,29.66A8.00446,8.00446,0,0,0,88,120V96h8v16a24.03189,24.03189,0,0,0,24,24v16H80a24.03185,24.03185,0,0,0-24,24V312a24.03189,24.03189,0,0,0,24,24H92.67993l29.66016,29.65991A8.0079,8.0079,0,0,0,128,368h19.81006L206.46,452.72A44.74107,44.74107,0,0,0,272,461.54V496h16V432a8.00818,8.00818,0,0,0-2.34009-5.66,48.55,48.55,0,0,1,0-68.68006L274.34009,346.34A64.13837,64.13837,0,0,0,257.46,376H236.65l4.95-23.09009A71.99186,71.99186,0,0,1,312,296h9.01a32.00791,32.00791,0,0,0,61.98,0H401.54a71.9001,71.9001,0,0,1,69.85,54.54q3.15,12.61487,5.16,25.46H432V352H416V496h16V392h46.58008A285.15712,285.15712,0,0,1,480,420.49V496h16V420.49a304.74859,304.74859,0,0,0-9.09009-73.83008A87.992,87.992,0,0,0,468.80005,311.2ZM96,80H80a7.99782,7.99782,0,0,0-8,8v12.69L53.65991,82.34A8.00778,8.00778,0,0,0,48,80H40a8.0107,8.0107,0,0,1-8-8V40a8.01066,8.01066,0,0,1,8-8h72a8.01066,8.01066,0,0,1,8,8V56A24.03185,24.03185,0,0,0,96,80Zm16,32V80a8.01066,8.01066,0,0,1,8-8h72a8.01066,8.01066,0,0,1,8,8v32a8.0107,8.0107,0,0,1-8,8H160a8.00778,8.00778,0,0,0-5.65991,2.34L136,140.69V128a7.99782,7.99782,0,0,0-8-8h-8A8.0107,8.0107,0,0,1,112,112ZM80,320a8.01074,8.01074,0,0,1-8-8V176a8.01066,8.01066,0,0,1,8-8h64a8.01066,8.01066,0,0,1,8,8v80H128a7.99782,7.99782,0,0,0-8,8,40.0791,40.0791,0,0,0,32,39.2V312a8.01074,8.01074,0,0,1-8,8Zm175.46,72A64.36808,64.36808,0,0,0,271.15,434.22a28.75251,28.75251,0,0,1-51.53,9.4l-61.03992-88.17A8.0188,8.0188,0,0,0,152,352H131.31006l-15.99-16H144a24.03189,24.03189,0,0,0,24-24V296a7.99782,7.99782,0,0,0-8-8,24.04436,24.04436,0,0,1-22.63-16H164l20,26.66992V344a8.0079,8.0079,0,0,0,2.34009,5.65991l40,40A8.0079,8.0079,0,0,0,232,392ZM352,56a96.01483,96.01483,0,0,1,95.66992,88.01,23.7986,23.7986,0,0,0-8.07983,1.51A21.76722,21.76722,0,0,0,418.27,128h-6.84009a31.04256,31.04256,0,0,1-30.99-28.05C378.77,83.27,365.89,71.42,349.12,71.14c-16.78992-.3-30.02991,11.14-32.24,27.77l-.28,2.06A31.2414,31.2414,0,0,1,285.73,128a21.76722,21.76722,0,0,0-21.32007,17.52,23.74128,23.74128,0,0,0-8.06982-1.51A96.12148,96.12148,0,0,1,352,56ZM320,280h-8a88.2255,88.2255,0,0,0-50.58008,16h-18.75a18.66915,18.66915,0,0,1-11.2-33.6001L242.13,254.4A34.8393,34.8393,0,0,0,256,226.67V216h11.3A88.22749,88.22749,0,0,0,320,273.99Zm53.6-19.3a7.9885,7.9885,0,0,0-5.6,7.63V288a16,16,0,0,1-32,0V268.33a7.985,7.985,0,0,0-5.61-7.63A72.04057,72.04057,0,0,1,280,192H264q0,4.035.37,8H256a8.0107,8.0107,0,0,1-8-8V168a8,8,0,0,1,16,0,8,8,0,0,0,16,0V149.73a5.73593,5.73593,0,0,1,5.73-5.73,47.29277,47.29277,0,0,0,46.73-40.91l.27-2.07c1.39-10.42,9.55-13.96,16.13-13.87995,6.56994.11,14.61,3.95,15.65,14.41A47.00716,47.00716,0,0,0,411.42993,144H418.27a5.73593,5.73593,0,0,1,5.73,5.73V168a8,8,0,0,0,16,0,8,8,0,0,1,16,0v24a8.0107,8.0107,0,0,1-8,8h-8.36q.36-3.96.36-8H424A71.6896,71.6896,0,0,1,373.6,260.7ZM452.2,296A87.8626,87.8626,0,0,0,401.54,280H384v-6a87.48657,87.48657,0,0,0,52.71-58H448v10.67a34.8393,34.8393,0,0,0,13.87,27.73l10.66,7.99994A18.75091,18.75091,0,0,1,480,277.33,18.67565,18.67565,0,0,1,461.33008,296Z" data-original="#000000" class="active-path" data-old_color="#000000" fill="#FFFFFF"/><path d="M346.34326,437.65674a64.64137,64.64137,0,0,1,0-91.31348l11.31348,11.31348a48.62445,48.62445,0,0,0,0,68.68652Z" data-original="#000000" class="active-path" data-old_color="#000000" fill="#FFFFFF"/><rect x="48" y="48" width="16" height="16" data-original="#000000" class="active-path" data-old_color="#000000" fill="#FFFFFF"/><rect x="72" y="48" width="24" height="16" data-original="#000000" class="active-path" data-old_color="#000000" fill="#FFFFFF"/><rect x="128" y="88" width="16" height="16" data-original="#000000" class="active-path" data-old_color="#000000" fill="#FFFFFF"/><rect x="152" y="88" width="32" height="16" data-original="#000000" class="active-path" data-old_color="#000000" fill="#FFFFFF"/><rect x="96" y="176" width="24" height="16" data-original="#000000" class="active-path" data-old_color="#000000" fill="#FFFFFF"/><circle cx="112" cy="296" r="8" data-original="#000000" class="active-path" data-old_color="#000000" fill="#FFFFFF"/></g></g> </svg>
